<svg width="16" height="16" viewBox="0 0 16 16" fill="none" xmlns="http://www.w3.org/2000/svg">
<rect width="16" height="16" rx="2" fill="white"/>
<path fill-rule="evenodd" clip-rule="evenodd" d="M4.97343 13.0949C4.7042 13.3618 4.33881 13.5245 3.93205 13.5245C3.52572 13.5245 3.16036 13.3612 2.89297 13.0949C2.62603 12.8281 2.46143 12.4645 2.46143 12.0601C2.46143 11.6556 2.62603 11.2909 2.89297 11.0233C3.16096 10.7572 3.52572 10.593 3.93205 10.593C4.33881 10.593 4.7042 10.7572 4.97219 11.0239C5.24019 11.2919 5.40374 11.6556 5.40497 12.0601C5.40374 12.4645 5.24019 12.8275 4.97343 13.0949Z" fill="#132A64"/>
<path fill-rule="evenodd" clip-rule="evenodd" d="M7.64735 13.5384C7.64735 13.5384 7.64735 13.5349 7.64675 13.5349C7.64443 12.149 7.10412 10.8414 6.12689 9.86537C5.1498 8.88645 3.84381 8.34428 2.46289 8.34305V6.22827C4.4778 6.2295 6.3018 7.04856 7.62625 8.37382C8.95024 9.6989 9.76933 11.5234 9.77116 13.5384H7.64735Z" fill="#132A64"/>
<path fill-rule="evenodd" clip-rule="evenodd" d="M11.4183 13.5383C11.4146 8.59787 7.40261 4.57926 2.46631 4.57557V2.46143C5.51921 2.46266 8.2837 3.70482 10.2903 5.71143C12.2957 7.71804 13.5372 10.4848 13.5384 13.5383H11.4183Z" fill="#132A64"/>
</svg>
