<svg width="16" height="16" viewBox="0 0 16 16" fill="none" xmlns="http://www.w3.org/2000/svg">
<path d="M0 2C0 0.895431 0.895431 0 2 0H14C15.1046 0 16 0.895431 16 2V14C16 15.1046 15.1046 16 14 16H2C0.895431 16 0 15.1046 0 14V2Z" fill="#EAEAEA"/>
<path d="M11.996 11.1135C11.9264 11.5979 10.951 12.8556 10.502 13.0371C10.3477 13.0974 10.2011 13.0839 10.0819 12.9921C10.0067 12.9317 9.92752 12.8083 8.87513 11.0782L8.5627 10.5626C8.44129 10.377 8.46424 10.1329 8.6149 9.94729C8.76148 9.76768 8.97544 9.70131 9.16238 9.7733C9.172 9.7793 9.95084 10.0369 9.95084 10.0369C11.7206 10.6267 11.7787 10.65 11.8539 10.7066C11.9657 10.8004 12.0179 10.9447 11.9945 11.1127L11.996 11.1135ZM8.44869 8.48077C8.32135 8.28729 8.32543 8.05893 8.45461 7.90256L8.9462 7.22274C10.026 5.73072 10.0874 5.65235 10.1607 5.59985C10.2862 5.51399 10.4421 5.50986 10.5905 5.58411C11.0184 5.79522 11.8842 7.0975 11.9361 7.59771V7.61533C11.9516 7.7852 11.8839 7.92394 11.7665 8.00793C11.6854 8.0608 11.6103 8.09005 9.5977 8.58614C9.27972 8.66826 9.10204 8.71326 8.99802 8.75038L9.01135 8.73463C8.81294 8.795 8.59121 8.69751 8.46387 8.49652L8.44869 8.48077ZM7.21085 7.70758C7.11645 7.73683 6.82328 7.82869 6.46274 7.23886C6.46274 7.23886 4.02776 3.35827 3.97187 3.23902C3.93707 3.10441 3.97779 2.9518 4.09736 2.8288C4.45975 2.44783 6.42424 1.89137 6.93914 2.01849C7.10683 2.06348 7.22269 2.16885 7.26304 2.32109C7.29376 2.48908 7.53289 6.08844 7.56769 6.89501C7.60063 7.58459 7.30746 7.67833 7.21085 7.70758ZM7.53289 11.6527C7.52697 13.5392 7.52327 13.6037 7.49255 13.6936C7.44257 13.8324 7.32301 13.928 7.15717 13.9573C6.68299 14.0394 5.20046 13.4848 4.88989 13.1136C4.83029 13.0314 4.79364 12.9493 4.78587 12.8657C4.77783 12.8074 4.7859 12.7479 4.80919 12.694C4.84584 12.5965 4.89803 12.52 6.23027 10.9383L6.62154 10.4678C6.75665 10.2938 6.99171 10.2413 7.21344 10.3309C7.42925 10.413 7.56251 10.6005 7.54696 10.8034V11.6433L7.53289 11.6527ZM3.49361 10.4456C3.34888 10.4419 3.21784 10.3519 3.14084 10.2053C3.0868 10.098 3.0483 9.92217 3.02313 9.70543C2.95576 9.05523 3.03867 8.0728 3.23153 7.76232C3.32037 7.61983 3.45326 7.54371 3.598 7.54934C3.69424 7.54934 3.78123 7.57859 5.68612 8.37353L6.24323 8.59814C6.44386 8.67426 6.56712 8.88312 6.55565 9.12348C6.5401 9.35596 6.40721 9.53557 6.2125 9.58844L5.41997 9.84417C3.64834 10.4224 3.58837 10.4359 3.49583 10.428L3.49361 10.4456ZM10.8855 13.9981H10.8837L10.8818 14L10.8855 13.9981Z" fill="#132A64"/>
</svg>
